<svg width="30" height="30" viewBox="0 0 30 30" fill="none" xmlns="http://www.w3.org/2000/svg">
<path d="M4.97075 12.3C5.02103 11.6735 5.30544 11.0889 5.76734 10.6627C6.22924 10.2365 6.83474 9.99987 7.46325 10H22.5357C23.1643 9.99987 23.7698 10.2365 24.2317 10.6627C24.6936 11.0889 24.978 11.6735 25.0282 12.3L26.032 24.8C26.0596 25.144 26.0157 25.49 25.903 25.8162C25.7904 26.1424 25.6114 26.4417 25.3774 26.6953C25.1434 26.9489 24.8594 27.1514 24.5433 27.2899C24.2272 27.4283 23.8858 27.4999 23.5407 27.5H6.45825C6.11315 27.4999 5.77181 27.4283 5.45572 27.2899C5.13963 27.1514 4.85564 26.9489 4.62162 26.6953C4.3876 26.4417 4.20862 26.1424 4.09596 25.8162C3.9833 25.49 3.93939 25.144 3.967 24.8L4.97075 12.3V12.3Z" stroke="black" stroke-width="2" stroke-linecap="round" stroke-linejoin="round"/>
<path d="M20 13.75V7.5C20 6.17392 19.4732 4.90215 18.5355 3.96447C17.5979 3.02678 16.3261 2.5 15 2.5C13.6739 2.5 12.4021 3.02678 11.4645 3.96447C10.5268 4.90215 10 6.17392 10 7.5V13.75" stroke="black" stroke-width="2" stroke-linecap="round" stroke-linejoin="round"/>
</svg>
