<svg width="266" height="266" viewBox="0 0 266 266" fill="none" xmlns="http://www.w3.org/2000/svg">
<path d="M49.875 249.375H216.125V207.812C216.107 192.386 209.971 177.596 199.063 166.687C188.154 155.779 173.364 149.643 157.938 149.625H108.062C92.6356 149.643 77.8456 155.779 66.9372 166.687C56.0287 177.596 49.8926 192.386 49.875 207.812V249.375Z" fill="black"/>
<path d="M74.8125 74.8125C74.8125 86.3209 78.2251 97.5709 84.6189 107.14C91.0126 116.709 100.1 124.167 110.733 128.571C121.365 132.975 133.065 134.127 144.352 131.882C155.639 129.637 166.007 124.095 174.145 115.957C182.282 107.82 187.824 97.4516 190.069 86.1643C192.315 74.8771 191.162 63.1775 186.758 52.5451C182.354 41.9127 174.896 32.8251 165.327 26.4314C155.758 20.0376 144.508 16.625 133 16.625C117.568 16.625 102.767 22.7555 91.8552 33.6677C80.943 44.58 74.8125 59.3802 74.8125 74.8125Z" fill="black"/>
</svg>
